<svg xmlns="http://www.w3.org/2000/svg" width="28.113" height="27.655" viewBox="0 0 28.113 27.655">
  <g id="_001-cart" data-name="001-cart" transform="translate(-16 -48)">
    <path id="Path_12353" data-name="Path 12353" d="M23.5,67.145H41.3a.487.487,0,0,0,.459-.423L44.1,53.958a.586.586,0,0,0-.1-.444.449.449,0,0,0-.364-.2H21.222L20.2,48.41a.485.485,0,0,0-.456-.41h-3.28a.536.536,0,0,0,0,1.064h2.909l3.549,17.119a2.121,2.121,0,0,0-1.3,2.026v1.064A2.015,2.015,0,0,0,23.5,71.4h0a2.922,2.922,0,0,0,.3,3.564,2.142,2.142,0,0,0,3.154,0,2.922,2.922,0,0,0,.3-3.564h9.374a2.922,2.922,0,0,0,.3,3.564,2.142,2.142,0,0,0,3.154,0,2.922,2.922,0,0,0,.3-3.564h1.875a.536.536,0,0,0,0-1.064H23.5a1.008,1.008,0,0,1-.937-1.064V68.208A1.008,1.008,0,0,1,23.5,67.145Zm.371-1.064-.441-2.127h2.585l.234,2.127H23.868Zm10.151-5.318-.078,2.127H30.857l-.078-2.127ZM30.74,59.7l-.078-2.127h3.474L34.058,59.7Zm-.821,3.191H26.839L26.6,60.763h3.237Zm.039,1.064.078,2.127H27.19l-.234-2.127Zm.938,0H33.9l-.078,2.127H30.974Zm3.944,0h3l-.234,2.127H34.762Zm.039-1.064.078-2.127h3.237L37.96,62.89Zm4.259-2.127H41.9l-.39,2.127H38.9Zm.117-1.064.234-2.127h2.993l-.39,2.127Zm-.944,0H35l.078-2.127h3.471Zm-3.2-3.191.078-2.127H38.9l-.234,2.127Zm-.938,0H30.623l-.078-2.127h3.709Zm-4.49,0H26.136L25.9,54.382h3.705Zm.039,1.064L29.8,59.7H26.487l-.234-2.127ZM25.543,59.7h-3L22.1,57.572h3.2Zm.117,1.064.234,2.127H23.206l-.441-2.127Zm15.261,5.318H38.553l.234-2.127h2.524Zm1.757-9.572H39.607l.234-2.127h3.227ZM24.957,54.382l.234,2.127H21.883l-.441-2.127Zm1.819,18.613a1.417,1.417,0,1,1-1.406-1.6A1.51,1.51,0,0,1,26.777,72.995Zm13.119,0a1.417,1.417,0,1,1-1.406-1.6A1.51,1.51,0,0,1,39.9,72.995Z" transform="translate(0)" fill="#fff"/>
    <circle id="Ellipse_195" data-name="Ellipse 195" cx="0.63" cy="0.63" r="0.63" transform="translate(24.846 72.589)" fill="#fff"/>
    <circle id="Ellipse_196" data-name="Ellipse 196" cx="0.63" cy="0.63" r="0.63" transform="translate(38.067 72.589)" fill="#fff"/>
  </g>
</svg>
