<svg id="Component_81_1" data-name="Component 81 – 1" xmlns="http://www.w3.org/2000/svg" width="40" height="40" viewBox="0 0 40 40">
  <circle id="Ellipse_418" data-name="Ellipse 418" cx="20" cy="20" r="20" fill="#a5a5b8"/>
  <path id="Path_7400" data-name="Path 7400" d="M549.48,488.167a5.363,5.363,0,0,1-1.31-9.577c1.185-.792,2.453-1.462,3.7-2.165a1.364,1.364,0,0,1,1.882.5,1.349,1.349,0,0,1-.526,1.871c-1.135.674-2.3,1.307-3.425,1.991a2.607,2.607,0,0,0-.008,4.527,2.573,2.573,0,0,0,2.717-.035q1.6-.921,3.192-1.842a1.383,1.383,0,0,1,2.042.4,1.413,1.413,0,0,1-.679,1.974c-1.089.633-2.176,1.268-3.273,1.887A5.5,5.5,0,0,1,549.48,488.167Z" transform="translate(-536.755 -459.396)" fill="#fff"/>
  <path id="Path_7401" data-name="Path 7401" d="M635.82,434.626a5.356,5.356,0,0,1,1.34,9.389,42.409,42.409,0,0,1-3.965,2.339,1.36,1.36,0,0,1-1.309-2.383c1.16-.693,2.352-1.333,3.5-2.042a2.607,2.607,0,0,0-.033-4.5,2.545,2.545,0,0,0-2.675.017c-1.133.649-2.258,1.311-3.395,1.952a1.315,1.315,0,0,1-1.585-.143,1.265,1.265,0,0,1-.372-1.5,1.806,1.806,0,0,1,.644-.741c1.126-.689,2.272-1.348,3.427-1.987A5.55,5.55,0,0,1,635.82,434.626Z" transform="translate(-608.397 -422.354)" fill="#fff"/>
  <path id="Path_7402" data-name="Path 7402" d="M597.8,484.385a1.261,1.261,0,0,1-.943-1.076,1.308,1.308,0,0,1,.593-1.354c.41-.269.845-.5,1.27-.745,1.846-1.067,3.686-2.146,5.547-3.186a2.031,2.031,0,0,1,1.083-.238,1.172,1.172,0,0,1,1.082.981,1.342,1.342,0,0,1-.48,1.4,2.1,2.1,0,0,1-.307.2q-3.307,1.911-6.615,3.822A1.462,1.462,0,0,1,597.8,484.385Z" transform="translate(-581.656 -460.6)" fill="#fff"/>
</svg>
