<svg xmlns="http://www.w3.org/2000/svg" width="13.202" height="17.586" viewBox="0 0 13.202 17.586">
  <g id="_001-delete" data-name="001-delete" transform="translate(-63.818 0)">
    <path id="Path_12557" data-name="Path 12557" d="M77.02,5.646H68.887L72.529,2a.515.515,0,0,0,0-.729L71.606.352a1.2,1.2,0,0,0-1.7,0l-.949.949L68.471.816a1.376,1.376,0,0,0-1.943,0L64.634,2.71a1.376,1.376,0,0,0,0,1.943l.486.486-.949.949a1.2,1.2,0,0,0,0,1.7l.923.923a.515.515,0,0,0,.729,0l1.306-1.306v7.948a2.233,2.233,0,0,0,2.233,2.233h5.427a2.233,2.233,0,0,0,2.233-2.233ZM65.848,4.41l-.486-.486a.344.344,0,0,1,0-.486l1.894-1.894a.344.344,0,0,1,.486,0l.486.486ZM70.3,14.7a.515.515,0,1,1-1.03,0V8.532a.515.515,0,1,1,1.03,0Zm2.292,0a.515.515,0,1,1-1.03,0V8.532a.515.515,0,1,1,1.03,0Zm2.292,0a.515.515,0,1,1-1.03,0V8.532a.515.515,0,0,1,1.03,0Z" fill="#fff"/>
    <path id="Path_12558" data-name="Path 12558" d="M304.838,85.437a.86.86,0,0,0-.571.716h4.944V85.3a.859.859,0,0,0-1.134-.813l-3.227.95Z" transform="translate(-232.19 -81.537)" fill="#fff"/>
  </g>
</svg>
