<svg id="download" xmlns="http://www.w3.org/2000/svg" width="19" height="24" viewBox="0 0 19 24">
  <path id="Path_21503" data-name="Path 21503" d="M13.423.185A.58.58,0,0,0,13.007,0H3.651A3.166,3.166,0,0,0,.5,3.148v17.7A3.166,3.166,0,0,0,3.651,24h12.7A3.166,3.166,0,0,0,19.5,20.852V6.794a.624.624,0,0,0-.168-.406Zm.168,1.861L17.548,6.2H14.976a1.38,1.38,0,0,1-1.385-1.38Zm2.757,20.794H3.651a2.007,2.007,0,0,1-1.993-1.989V3.148A2.007,2.007,0,0,1,3.651,1.159h8.782V4.823a2.535,2.535,0,0,0,2.543,2.539h3.365v13.49A2,2,0,0,1,16.349,22.841Zm0,0" transform="translate(-0.5)"/>
  <path id="Path_21504" data-name="Path 21504" d="M99.28,401.934H89.751a.58.58,0,0,0,0,1.159h9.535a.58.58,0,1,0-.006-1.159Zm0,0" transform="translate(-85.015 -383.094)"/>
  <path id="Path_21505" data-name="Path 21505" d="M122.174,179.074a.575.575,0,0,0,.846,0l3.4-3.646a.578.578,0,1,0-.846-.788l-2.394,2.568v-6.33a.58.58,0,0,0-1.159,0v6.33l-2.388-2.568a.578.578,0,0,0-.846.788Zm0,0" transform="translate(-113.098 -162.314)"/>
</svg>
