<svg xmlns="http://www.w3.org/2000/svg" xmlns:xlink="http://www.w3.org/1999/xlink" width="15" height="16" viewBox="0 0 15 16">
  <defs>
    <clipPath id="clip-path">
      <rect id="Rectangle_1882" data-name="Rectangle 1882" width="15" height="16" transform="translate(1447 6516)" fill="#fff" stroke="#707070" stroke-width="1"/>
    </clipPath>
  </defs>
  <g id="Mask_Group_28" data-name="Mask Group 28" transform="translate(-1447 -6516)" clip-path="url(#clip-path)">
    <g id="_001-email" data-name="001-email" transform="translate(1447 6518.5)">
      <g id="Group_5451" data-name="Group 5451" transform="translate(10.018 2.028)">
        <g id="Group_5450" data-name="Group 5450">
          <path id="Path_12474" data-name="Path 12474" d="M10.606,8.082l5.1,3.41V4.528Z" transform="translate(-10.606 -4.528)" fill="#fff"/>
        </g>
      </g>
      <g id="Group_5453" data-name="Group 5453" transform="translate(0 2.028)">
        <g id="Group_5452" data-name="Group 5452">
          <path id="Path_12475" data-name="Path 12475" d="M0,4.528v6.964l5.1-3.41Z" transform="translate(0 -4.528)" fill="#fff"/>
        </g>
      </g>
      <g id="Group_5455" data-name="Group 5455" transform="translate(0.028)">
        <g id="Group_5454" data-name="Group 5454">
          <path id="Path_12476" data-name="Path 12476" d="M14.17,2.5H.946a.953.953,0,0,0-.916.851L7.558,8.6l7.528-5.251A.953.953,0,0,0,14.17,2.5Z" transform="translate(-0.03 -2.5)" fill="#fff"/>
        </g>
      </g>
      <g id="Group_5457" data-name="Group 5457" transform="translate(0.03 6.185)">
        <g id="Group_5456" data-name="Group 5456">
          <path id="Path_12477" data-name="Path 12477" d="M9.155,8.686l-1.337.932a.452.452,0,0,1-.52,0L5.962,8.685.032,12.656a.951.951,0,0,0,.914.844H14.17a.951.951,0,0,0,.914-.844Z" transform="translate(-0.032 -8.685)" fill="#fff"/>
        </g>
      </g>
    </g>
  </g>
</svg>
