<svg xmlns="http://www.w3.org/2000/svg" width="24.249" height="21.211" viewBox="0 0 24.249 21.211">
  <g id="_001-favorite" data-name="001-favorite" transform="translate(0 -32.073)">
    <path id="Path_12354" data-name="Path 12354" d="M24.249,38.7a.374.374,0,0,0,0-.052s0,0,0-.006a6.818,6.818,0,0,0-11.2-4.973,1.424,1.424,0,0,1-1.838,0A6.818,6.818,0,0,0,0,38.646s0,0,0,.006A.367.367,0,0,0,0,38.7v.189a.386.386,0,0,0,0,.047s0,0,0,.005c.08,2.72,1.515,5.593,4.268,8.545a37.488,37.488,0,0,0,6.469,5.376,2.5,2.5,0,0,0,2.767,0,37.484,37.484,0,0,0,6.469-5.376c2.753-2.952,4.188-5.825,4.268-8.545,0,0,0,0,0-.005a.376.376,0,0,0,0-.047Zm-4.826,8.27a36.709,36.709,0,0,1-6.333,5.261,1.748,1.748,0,0,1-1.931,0,36.709,36.709,0,0,1-6.333-5.261C2.165,44.12.8,41.375.759,38.813v-.007s0-.007,0-.011a6.06,6.06,0,0,1,9.959-4.543,2.181,2.181,0,0,0,2.814,0A6.06,6.06,0,0,1,23.491,38.8v.011s0,.005,0,.008C23.452,41.376,22.084,44.12,19.423,46.974Z" fill="#fff"/>
    <path id="Path_12355" data-name="Path 12355" d="M139,64.783a5.306,5.306,0,0,0-2.65-.711.379.379,0,1,0,0,.758,4.548,4.548,0,0,1,2.271.609.379.379,0,1,0,.379-.656Z" transform="translate(-129.535 -30.483)" fill="#fff"/>
    <path id="Path_12356" data-name="Path 12356" d="M442.052,119.344a.379.379,0,0,0-.669.357,4.49,4.49,0,0,1,.531,2.056,8,8,0,0,1-1.048,3.6.379.379,0,1,0,.668.358,8.733,8.733,0,0,0,1.138-3.946s0-.008,0-.013A5.315,5.315,0,0,0,442.052,119.344Z" transform="translate(-419.94 -82.946)" fill="#fff"/>
    <path id="Path_12357" data-name="Path 12357" d="M405.618,75.234a.379.379,0,0,0,0-.536,5.3,5.3,0,0,0-1.5-1.044.379.379,0,1,0-.318.688,4.542,4.542,0,0,1,1.288.9.379.379,0,0,0,.536,0Z" transform="translate(-384.458 -39.577)" fill="#fff"/>
  </g>
</svg>
