<svg xmlns="http://www.w3.org/2000/svg" xmlns:xlink="http://www.w3.org/1999/xlink" width="16" height="16" viewBox="0 0 16 16">
  <defs>
    <clipPath id="clip-path">
      <rect id="Rectangle_1881" data-name="Rectangle 1881" width="16" height="16" transform="translate(1447 6486)" fill="#242424" stroke="#707070" stroke-width="1"/>
    </clipPath>
  </defs>
  <g id="Mask_Group_27" data-name="Mask Group 27" transform="translate(-1447 -6486)" clip-path="url(#clip-path)">
    <g id="_001-fax" data-name="001-fax" transform="translate(1447 6486)">
      <path id="Path_12469" data-name="Path 12469" d="M5.625,4.25a1.875,1.875,0,0,0-3.75,0v9.406a1.875,1.875,0,0,0,3.75,0Z" fill="#242424"/>
      <path id="Path_12470" data-name="Path 12470" d="M8.469,6.625h4.688v.938H8.469Z" fill="#242424"/>
      <path id="Path_12471" data-name="Path 12471" d="M15.531,3.781H6.515a2.79,2.79,0,0,1,.047.469v9.406A2.81,2.81,0,0,1,5.3,16H15.531A.468.468,0,0,0,16,15.531V4.25A.468.468,0,0,0,15.531,3.781ZM8.938,14.125a.469.469,0,1,1,.469-.469A.469.469,0,0,1,8.938,14.125Zm0-1.875a.469.469,0,1,1,.469-.469A.469.469,0,0,1,8.938,12.25Zm0-1.875a.469.469,0,1,1,.469-.469A.469.469,0,0,1,8.938,10.375Zm1.875,3.75a.469.469,0,1,1,.469-.469A.469.469,0,0,1,10.813,14.125Zm0-1.875a.469.469,0,1,1,.469-.469A.469.469,0,0,1,10.813,12.25Zm0-1.875a.469.469,0,1,1,.469-.469A.469.469,0,0,1,10.813,10.375Zm1.875,3.75a.469.469,0,1,1,.469-.469A.469.469,0,0,1,12.688,14.125Zm0-1.875a.469.469,0,1,1,.469-.469A.469.469,0,0,1,12.688,12.25Zm0-1.875a.469.469,0,1,1,.469-.469A.469.469,0,0,1,12.688,10.375Zm1.406-2.344a.468.468,0,0,1-.469.469H8a.468.468,0,0,1-.469-.469V6.156A.468.468,0,0,1,8,5.688h5.625a.468.468,0,0,1,.469.469Z" fill="#242424"/>
      <path id="Path_12472" data-name="Path 12472" d="M13.625,0H8a.468.468,0,0,0-.469.469V2.813h6.563V.469A.468.468,0,0,0,13.625,0ZM11.75,1.875H9.875a.469.469,0,0,1,0-.937H11.75a.469.469,0,0,1,0,.938Z" fill="#242424"/>
      <path id="Path_12473" data-name="Path 12473" d="M.938,13.656V4.25a2.79,2.79,0,0,1,.047-.469H.469A.468.468,0,0,0,0,4.25V15.531A.468.468,0,0,0,.469,16H2.2A2.81,2.81,0,0,1,.938,13.656Z" fill="#242424"/>
    </g>
  </g>
</svg>
