<svg xmlns="http://www.w3.org/2000/svg" width="128.38" height="26.875" viewBox="0 0 128.38 26.875">
  <g id="Group_9559" data-name="Group 9559" transform="translate(-240 -254.718)">
    <path id="Path_52" data-name="Path 52" d="M6570.442,12549.251v2.608h-9.583v-11.934h9.361v2.607H6564.2v2.012h5.3v2.523h-5.3v2.183Zm7.093-.562h-1.841v3.17h-3.375v-11.934h5.454a6.806,6.806,0,0,1,2.814.537,4.342,4.342,0,0,1,1.885,6.138,4.114,4.114,0,0,1-1.732,1.509l2.575,3.75H6579.7Zm2.131-4.348a1.627,1.627,0,0,0-.529-1.3,2.339,2.339,0,0,0-1.568-.459h-1.875v3.494h1.875a2.355,2.355,0,0,0,1.568-.452A1.6,1.6,0,0,0,6579.667,12544.342Zm14.852,4.909v2.608h-9.583v-11.934h9.359v2.607h-6.018v2.012h5.3v2.523h-5.3v2.183Zm11.048-3.614a3.362,3.362,0,0,1,1.6,1.116,2.937,2.937,0,0,1,.58,1.834,2.754,2.754,0,0,1-1.262,2.421,6.513,6.513,0,0,1-3.649.852h-6.444v-11.934h6.1a6,6,0,0,1,3.477.844,2.651,2.651,0,0,1,1.194,2.275,2.84,2.84,0,0,1-.417,1.526A2.906,2.906,0,0,1,6605.566,12545.637Zm-5.831-3.272v2.3h2.318q1.707,0,1.706-1.159,0-1.143-1.706-1.142Zm2.831,7.058q1.771,0,1.772-1.211t-1.772-1.209h-2.831v2.42Zm12.445,2.676a5.647,5.647,0,0,1-4.135-1.449,5.5,5.5,0,0,1-1.475-4.11v-6.612h3.376v6.512q0,2.865,2.267,2.865t2.252-2.865v-6.512h3.325v6.612a5.5,5.5,0,0,1-1.475,4.11A5.648,5.648,0,0,1,6615.012,12552.1Zm19.25-12.172v11.934h-2.779l-5.269-6.358v6.358h-3.308v-11.934h2.78l5.268,6.359v-6.359Zm2.387,0h3.377v11.934h-3.377Z" transform="translate(-6320.86 -12285.208)" fill="#fff"/>
    <path id="Path_53" data-name="Path 53" d="M0,15540.643H1.722l1.4,5.076,1.436-5.076H6.217v7.041h-1.1v-6.008l-1.668,6.008H2.607l-1.636-6.016v6.016H0v-7.041Zm7.572,0H11.6v.93H8.733v2.017h2.248v.938H8.733v2.206h2.913v.95H7.572v-7.041Zm4.855,0h1.582a3.574,3.574,0,0,1,1.838.408,2.558,2.558,0,0,1,1.04,1.212,4.382,4.382,0,0,1,.354,1.784,4.99,4.99,0,0,1-.317,1.838,2.936,2.936,0,0,1-.969,1.3,3.021,3.021,0,0,1-1.858.5H12.427Zm1.161.93v5.183h.487a1.636,1.636,0,0,0,1.479-.708,3.383,3.383,0,0,0,.461-1.881q0-2.6-1.94-2.594Zm4.771-.93H19.52v7.041H18.359Zm6.052,4.674,1.077.15q-.33,2.345-2.3,2.344a2.117,2.117,0,0,1-1.912-.985,4.854,4.854,0,0,1-.628-2.634,4.731,4.731,0,0,1,.665-2.729,2.2,2.2,0,0,1,1.918-.947q1.937,0,2.273,2.406l-1.1.159q-.174-1.616-1.179-1.615-1.343,0-1.344,2.792,0,2.6,1.349,2.6a.9.9,0,0,0,.806-.4A2.872,2.872,0,0,0,24.411,15545.316Zm3.372-4.674h1.323l1.879,7.041H29.806l-.442-1.764H27.307l-.436,1.764H25.76Zm1.353,4.359-.806-3.225-.8,3.225Zm2.558-4.359h1.161v6.059h2.491v.982H31.694Zm7.587,0H40.6l1.879,7.041H41.3l-.442-1.764H38.8l-.436,1.764h-1.11Zm1.353,4.359-.806-3.225-.8,3.225Zm5.966.314,1.077.15q-.33,2.345-2.3,2.344a2.117,2.117,0,0,1-1.912-.985,4.854,4.854,0,0,1-.628-2.634,4.731,4.731,0,0,1,.665-2.729,2.2,2.2,0,0,1,1.918-.947q1.937,0,2.273,2.406l-1.1.159q-.174-1.616-1.179-1.615-1.343,0-1.344,2.792,0,2.6,1.349,2.6a.9.9,0,0,0,.806-.4,2.872,2.872,0,0,0,.378-1.146Zm3.372-4.674H51.3l1.879,7.041H52l-.442-1.764H49.5l-.436,1.764h-1.11Zm1.353,4.359-.806-3.225-.8,3.225Zm2.558-4.359h1.582a3.574,3.574,0,0,1,1.838.408,2.558,2.558,0,0,1,1.04,1.212,4.382,4.382,0,0,1,.354,1.784,4.99,4.99,0,0,1-.317,1.838,2.936,2.936,0,0,1-.969,1.3,3.021,3.021,0,0,1-1.858.5H53.883v-7.041Zm1.161.93v5.183h.487a1.636,1.636,0,0,0,1.479-.708,3.383,3.383,0,0,0,.461-1.881q0-2.6-1.94-2.594Zm4.771-.93h4.032v.93H60.976v2.017h2.248v.938H60.976v2.205H63.89v.951H59.815Zm4.834,0h1.722l1.4,5.076,1.436-5.076h1.659v7.041h-1.1v-6.008l-1.668,6.008h-.844l-1.636-6.016v6.016H64.65Zm6.569,0h1.267l1.3,2.946,1.318-2.946h1.1l-1.953,4.064v2.977H73.087v-2.977Zm7.285,0h3.905v.93H79.664v2.111h2.2v.928h-2.2v3.072H78.5Zm9.318,3.517a4.762,4.762,0,0,1-.644,2.728,2.139,2.139,0,0,1-1.872.924,2.173,2.173,0,0,1-1.886-.922,6.015,6.015,0,0,1-.005-5.446,2.373,2.373,0,0,1,3.758-.007A4.725,4.725,0,0,1,87.822,15544.159Zm-1.224,0a5.427,5.427,0,0,0-.29-1.975,1.073,1.073,0,0,0-2.028,0,5.478,5.478,0,0,0-.288,1.973,5.6,5.6,0,0,0,.283,1.965,1.033,1.033,0,0,0,1.033.732,1.019,1.019,0,0,0,1-.711,5.364,5.364,0,0,0,.294-1.986Zm2.285-3.52h1.14v4.377a5.543,5.543,0,0,0,.077,1.084.9.9,0,0,0,.354.553,1.239,1.239,0,0,0,.746.2,1.22,1.22,0,0,0,.691-.167.9.9,0,0,0,.35-.476,4.594,4.594,0,0,0,.1-1.219v-4.355H93.39v4.29a6.544,6.544,0,0,1-.148,1.587,1.592,1.592,0,0,1-.679.923,2.481,2.481,0,0,1-1.432.368,2.928,2.928,0,0,1-1.209-.231,1.575,1.575,0,0,1-.778-.741,4.433,4.433,0,0,1-.262-1.828v-4.367Zm5.774,0h1.369l2.315,5.076v-5.076h.971v7.041H98.222l-2.595-5.639v5.639h-.971Zm5.964,0H102.2a3.573,3.573,0,0,1,1.838.408,2.557,2.557,0,0,1,1.04,1.212,4.382,4.382,0,0,1,.354,1.784,4.991,4.991,0,0,1-.317,1.838,2.937,2.937,0,0,1-.969,1.3,3.021,3.021,0,0,1-1.858.5H100.62v-7.041Zm1.161.93v5.183h.487a1.636,1.636,0,0,0,1.479-.708,3.383,3.383,0,0,0,.461-1.881q0-2.6-1.94-2.594h-.487Zm5.927-.93h1.323l1.879,7.041h-1.179l-.442-1.764h-2.058l-.436,1.764h-1.11Zm1.353,4.359-.806-3.225-.8,3.225h1.6Zm1.441-4.359h4.285v.992h-1.562v6.049h-1.161v-6.049H110.5v-.992Zm4.8,0h1.161v7.041H115.3Zm7.339,3.517a4.762,4.762,0,0,1-.644,2.728,2.139,2.139,0,0,1-1.872.924,2.173,2.173,0,0,1-1.886-.922,6.015,6.015,0,0,1-.005-5.446,2.373,2.373,0,0,1,3.758-.007A4.725,4.725,0,0,1,122.643,15544.159Zm-1.224,0a5.428,5.428,0,0,0-.29-1.975,1.073,1.073,0,0,0-2.028,0,5.477,5.477,0,0,0-.289,1.973,5.6,5.6,0,0,0,.283,1.965,1.033,1.033,0,0,0,1.033.732,1.019,1.019,0,0,0,1-.711A5.364,5.364,0,0,0,121.419,15544.162Zm2.306-3.52h1.369l2.315,5.076v-5.076h.971v7.041h-1.089l-2.595-5.639v5.639h-.971Z" transform="translate(240 -15266.218)" fill="#fff"/>
  </g>
</svg>
