<svg xmlns="http://www.w3.org/2000/svg" xmlns:xlink="http://www.w3.org/1999/xlink" width="30" height="30" viewBox="0 0 30 30">
  <defs>
    <clipPath id="clip-path">
      <rect id="Rectangle_291" data-name="Rectangle 291" width="30" height="30" transform="translate(11 47)" fill="#aeaebb"/>
    </clipPath>
  </defs>
  <g id="home" transform="translate(-11 -47)" clip-path="url(#clip-path)">
    <path id="home-2" data-name="home" d="M21.059,9.189l0,0L12.439.569a1.945,1.945,0,0,0-2.751,0L1.073,9.183l-.009.009a1.944,1.944,0,0,0,1.294,3.314l.06,0h.343v6.343a2.279,2.279,0,0,0,2.277,2.276H8.411a.619.619,0,0,0,.619-.619V15.536A1.04,1.04,0,0,1,10.069,14.5h1.989A1.04,1.04,0,0,1,13.1,15.536v4.973a.619.619,0,0,0,.619.619h3.372a2.279,2.279,0,0,0,2.277-2.276V12.509h.319a1.945,1.945,0,0,0,1.377-3.32Zm-.877,1.874a.7.7,0,0,1-.5.207h-.938a.619.619,0,0,0-.619.619v6.962a1.04,1.04,0,0,1-1.039,1.038H14.334V15.536a2.279,2.279,0,0,0-2.277-2.277H10.069a2.279,2.279,0,0,0-2.277,2.277V19.89H5.039A1.04,1.04,0,0,1,4,18.852V11.89a.619.619,0,0,0-.619-.619h-.95a.706.706,0,0,1-.487-1.206h0l8.619-8.618a.707.707,0,0,1,1,0l8.617,8.616,0,0a.709.709,0,0,1,0,1Zm0,0" transform="translate(14.937 51)" fill="#aeaebb"/>
  </g>
</svg>
