<svg id="Group_5732" data-name="Group 5732" xmlns="http://www.w3.org/2000/svg" width="91.629" height="72.579" viewBox="0 0 91.629 72.579">
  <g id="Group_5731" data-name="Group 5731" transform="translate(0 0)">
    <g id="Group_5562" data-name="Group 5562" transform="translate(0 34.996)">
      <g id="Group_5290" data-name="Group 5290">
        <path id="Path_12346" data-name="Path 12346" d="M90.856,257.5a6.723,6.723,0,0,0-9.128-2.48c-.581.286-8.01,3.938-14.13,6.513a1.343,1.343,0,1,0,1.042,2.475c6.417-2.7,14.236-6.56,14.314-6.6.026-.013.051-.026.076-.04a4.034,4.034,0,0,1,5.5,1.475c1.286,2.224-.722,4.665-1.7,5.662-6.666,5.377-25.111,19.165-31.31,19.165-6.872,0-26.155-4.085-30.871-5.107v-21.93c9.351-1.374,14.3.349,24.685,3.967,3.158,1.1,6.736,2.347,11.084,3.737a2.847,2.847,0,0,1,1.761,3.583,3.223,3.223,0,0,1-3.727,2.351c-2.643-.5-18.2-2.606-18.859-2.7a1.342,1.342,0,1,0-.36,2.661c.161.022,16.147,2.19,18.724,2.674a6.3,6.3,0,0,0,1.163.111,5.953,5.953,0,0,0,5.631-4.33,5.492,5.492,0,0,0-3.317-6.839l-.014-.006-.012-.006c-.018-.008-.037-.013-.055-.02s-.036-.015-.055-.021c-4.344-1.387-7.922-2.635-11.08-3.735-10.352-3.607-15.808-5.505-25.569-4.143V252.8a1.342,1.342,0,0,0-1.343-1.343H19.276v-1.342a1.342,1.342,0,0,0-1.343-1.343H1.343A1.342,1.342,0,0,0,0,250.114v29.527a1.343,1.343,0,1,0,2.685,0V251.456H16.591v32.213H13.907v-1.342a1.343,1.343,0,0,0-2.685,0v1.342H1.343a1.343,1.343,0,0,0,0,2.685H17.933a1.342,1.342,0,0,0,1.343-1.343V283.6H23.3a1.342,1.342,0,0,0,1.343-1.343v-.949c5.617,1.214,23.9,5.044,30.871,5.044,3.669,0,10.175-3.269,19.889-9.993,7.006-4.85,13.1-9.765,13.165-9.814a1.406,1.406,0,0,0,.106-.1C91.594,263.53,92.408,260.183,90.856,257.5ZM21.96,279.62v1.3H19.276V254.14H21.96v25.48Z" transform="translate(0 -248.771)"/>
      </g>
    </g>
    <g id="Group_5563" data-name="Group 5563" transform="translate(29.128 0)">
      <g id="Group_5292" data-name="Group 5292">
        <path id="Path_12347" data-name="Path 12347" d="M208.842,53.223H167.671a4.928,4.928,0,0,0-4.923,4.923V81.417a4.928,4.928,0,0,0,4.923,4.923h41.172a4.928,4.928,0,0,0,4.923-4.923V58.146A4.928,4.928,0,0,0,208.842,53.223Zm-43.409,4.923a2.24,2.24,0,0,1,2.238-2.238h41.172a2.24,2.24,0,0,1,2.238,2.238v.448H165.433ZM211.08,81.418a2.24,2.24,0,0,1-2.238,2.238H167.671a2.24,2.24,0,0,1-2.238-2.238V68.44H211.08ZM165.433,65.755V61.279H211.08v4.476Z" transform="translate(-162.748 -53.223)"/>
      </g>
    </g>
  </g>
  <g id="Group_5565" data-name="Group 5565" transform="translate(34.577 23.402)">
    <g id="Group_5294" data-name="Group 5294" transform="translate(0 0)">
      <path id="Path_12348" data-name="Path 12348" d="M204.649,173.257H193.9a1.151,1.151,0,1,0,0,2.3h10.745a1.151,1.151,0,1,0,0-2.3Z" transform="translate(-192.753 -173.257)"/>
    </g>
  </g>
  <g id="Group_5564" data-name="Group 5564" transform="translate(63.741 23.402)">
    <g id="Group_5296" data-name="Group 5296" transform="translate(0 0)">
      <path id="Path_12349" data-name="Path 12349" d="M387.023,173.257h-3.07a1.151,1.151,0,1,0,0,2.3h3.07a1.151,1.151,0,1,0,0-2.3Z" transform="translate(-382.802 -173.257)"/>
    </g>
  </g>
</svg>
