<svg id="letters" xmlns="http://www.w3.org/2000/svg" width="32" height="32" viewBox="0 0 32 32">
  <path id="Path_5709" data-name="Path 5709" d="M907.612-515.871H901.4a2.218,2.218,0,0,1-2.3-2.3q-.013-4.22,0-8.441a2.207,2.207,0,0,1,2.229-2.263q6.293-.01,12.585,0a2.212,2.212,0,0,1,2.23,2.265q.013,4.233,0,8.467a2.206,2.206,0,0,1-2.267,2.275q-3.133.006-6.267,0Zm-7.439-10.665v.35q0,2.83,0,5.66c0,.785,0,1.569,0,2.354a1.131,1.131,0,0,0,1.16,1.216c.2.008.4,0,.6,0q5.926,0,11.853,0a1.156,1.156,0,0,0,1.291-1.3q0-3.994,0-7.988c0-.08-.009-.159-.016-.274-.094.079-.149.123-.2.169l-6.68,5.846c-.479.42-.625.421-1.111,0l-3.625-3.173Zm14.437-1.019a1.093,1.093,0,0,0-.749-.235q-3.262,0-6.523,0-2.975,0-5.951,0a1.039,1.039,0,0,0-.743.237l6.982,6.109Z" transform="translate(-891.625 538.377)" fill="#aeaebb"/>
  <g id="Group_5189" data-name="Group 5189">
    <path id="Path_5714" data-name="Path 5714" d="M-89.437,31.85a16.018,16.018,0,0,1-16-16,16.018,16.018,0,0,1,16-16,16.018,16.018,0,0,1,16,16A16.018,16.018,0,0,1-89.437,31.85Zm0-30.712A14.729,14.729,0,0,0-104.149,15.85,14.729,14.729,0,0,0-89.437,30.562,14.729,14.729,0,0,0-74.725,15.85,14.729,14.729,0,0,0-89.437,1.138Z" transform="translate(105.437 0.15)" fill="#aeaebb"/>
  </g>
</svg>
