<svg xmlns="http://www.w3.org/2000/svg" width="19.366" height="16.265" viewBox="0 0 19.366 16.265">
  <g id="_001-love" data-name="001-love" transform="translate(0 -40.992)">
    <g id="Group_5599" data-name="Group 5599" transform="translate(0 40.993)">
      <path id="Path_12499" data-name="Path 12499" d="M17.762,42.5a5.607,5.607,0,0,0-7.641,0l-.438.416L9.246,42.5a5.608,5.608,0,0,0-7.641,0,5.011,5.011,0,0,0,0,7.35l7.611,7.226a.679.679,0,0,0,.935,0l7.611-7.226a5.011,5.011,0,0,0,0-7.35Zm-.936,6.364L9.683,55.641,2.541,48.86a3.652,3.652,0,0,1,0-5.38,4.232,4.232,0,0,1,5.768,0l.906.861a.679.679,0,0,0,.936,0l.906-.861a4.233,4.233,0,0,1,5.768,0,3.652,3.652,0,0,1,0,5.38Z" transform="translate(0 -40.993)" fill="#fff"/>
    </g>
  </g>
</svg>
