<svg xmlns="http://www.w3.org/2000/svg" width="29.472" height="29.472" viewBox="0 0 29.472 29.472">
  <g id="_001-address" data-name="001-address" transform="translate(-0.001 0)">
    <path id="Path_12362" data-name="Path 12362" d="M306.576,260a.576.576,0,1,0,.576.576A.576.576,0,0,0,306.576,260Zm0,0" transform="translate(-288.385 -245.034)" fill="#fff"/>
    <path id="Path_12363" data-name="Path 12363" d="M5.882,21.286.125,28.539a.576.576,0,0,0,.451.933H28.9a.576.576,0,0,0,.451-.933l-5.756-7.253a.575.575,0,0,0-.451-.218H18.1l4.3-6.752a9.21,9.21,0,1,0-15.333,0l4.3,6.752H6.333a.576.576,0,0,0-.451.218Zm-2.149,4.56H7.213L5.249,28.321H1.768Zm8.377-3.626,1.578,2.475H9.6l1.965-2.475Zm5.256,0h.548l1.964,2.475h-4.09Zm3.426,3.626,1.964,2.475H6.718l1.965-2.475Zm3.434,2.475-1.965-2.475h3.481l1.964,2.475Zm.6-3.626H21.347l-1.965-2.475h3.481ZM8.031,13.682a8.059,8.059,0,1,1,13.412,0l-.007.01L14.737,24.2l-6.7-10.507-.007-.01Zm2.06,8.537L8.127,24.694H4.646l1.965-2.475Zm0,0" fill="#fff"/>
    <path id="Path_12364" data-name="Path 12364" d="M161.756,71.513A5.756,5.756,0,1,0,156,65.756,5.757,5.757,0,0,0,161.756,71.513Zm0-10.361a4.605,4.605,0,1,1-4.605,4.605A4.61,4.61,0,0,1,161.756,61.151Zm0,0" transform="translate(-147.019 -56.546)" fill="#fff"/>
    <path id="Path_12365" data-name="Path 12365" d="M249,292.77a.576.576,0,0,0-.79.2l-2.128,3.53a.576.576,0,1,0,.986.594l2.128-3.53A.576.576,0,0,0,249,292.77Zm0,0" transform="translate(-231.835 -275.84)" fill="#fff"/>
  </g>
</svg>
