<svg id="pdf" xmlns="http://www.w3.org/2000/svg" width="17" height="24" viewBox="0 0 17 24">
  <g id="Group_10691" data-name="Group 10691">
    <g id="Group_10690" data-name="Group 10690" transform="translate(0)">
      <path id="Path_6594" data-name="Path 6594" d="M80.862,5.146l-4.722-5A.459.459,0,0,0,75.806,0H65.889A1.949,1.949,0,0,0,64,2V22a1.949,1.949,0,0,0,1.889,2H79.111A1.949,1.949,0,0,0,81,22V5.5A.515.515,0,0,0,80.862,5.146ZM76.278,1.707,79.388,5H77.222a.975.975,0,0,1-.944-1ZM80.056,22a.975.975,0,0,1-.944,1H65.889a.975.975,0,0,1-.944-1V2a.975.975,0,0,1,.944-1h9.444V4a1.949,1.949,0,0,0,1.889,2h2.833Z" transform="translate(-64)" fill="#aeaebb"/>
      <path id="Path_6595" data-name="Path 6595" d="M135.852,177.321a13.689,13.689,0,0,1-1.1-1.028c-.35-.38-.661-.747-.932-1.1a11.941,11.941,0,0,0,.608-2.536c0-1.654-.551-1.993-1.378-1.993-.628,0-1.378.354-1.378,2.041a4.987,4.987,0,0,0,1.119,2.7c-.182.6-.4,1.3-.636,2.082-.116.376-.241.724-.374,1.047-.108.052-.213.105-.314.16-.365.2-.712.376-1.033.542-1.466.753-2.435,1.251-2.435,2.235a1.291,1.291,0,0,0,1.378,1.157c.854,0,2.143-1.237,3.085-3.322a17.146,17.146,0,0,1,3.152-.923,5.164,5.164,0,0,0,2.029,1.255,1.2,1.2,0,0,0,1.378-1.313c0-1.178-1.24-1.178-1.837-1.178A10.061,10.061,0,0,0,135.852,177.321Zm-6.474,4.307a.692.692,0,0,1-.459-.16c0-.353.971-.852,1.91-1.335l.182-.093C130.32,181.124,129.638,181.628,129.378,181.628Zm3.214-8.921c0-1.044.3-1.044.459-1.044.325,0,.459,0,.459,1a8.557,8.557,0,0,1-.365,1.556A3.22,3.22,0,0,1,132.592,172.707Zm.352,5.355q.043-.13.083-.263c.17-.555.324-1.053.461-1.5q.286.342.616.7c.086.093.3.3.584.567C134.122,177.7,133.52,177.864,132.944,178.062Zm5.158.259c0,.224,0,.317-.426.32a3.32,3.32,0,0,1-.771-.478,2.726,2.726,0,0,1,.279-.023C137.863,178.14,138.055,178.212,138.1,178.321Z" transform="translate(-125.01 -162.638)" fill="#aeaebb"/>
    </g>
  </g>
</svg>
