<svg id="_001-vibrating-phone" data-name="001-vibrating-phone" xmlns="http://www.w3.org/2000/svg" width="21.914" height="21.817" viewBox="0 0 21.914 21.817">
  <path id="Path_12359" data-name="Path 12359" d="M21.283,16.922l-3.167-3.169a2.257,2.257,0,0,0-1.6-.656,2.367,2.367,0,0,0-1.684.7L13.6,15.031a15.013,15.013,0,0,1-3.553-2.587A15.023,15.023,0,0,1,7.454,8.89L8.688,7.657A2.329,2.329,0,0,0,8.73,4.369L5.563,1.2a2.247,2.247,0,0,0-1.6-.66A2.369,2.369,0,0,0,2.3,1.214,6.782,6.782,0,0,0,.159,5.123c-.712,3.478.924,6.824,5.648,11.55,5.277,5.276,9.782,5.686,11.037,5.686a4.172,4.172,0,0,0,.461-.021,5.227,5.227,0,0,0,3.986-2.18A2.4,2.4,0,0,0,21.283,16.922ZM20.232,19.3a3.869,3.869,0,0,1-3.085,1.682,3.028,3.028,0,0,1-.3.012c-1.123,0-5.168-.381-10.075-5.287C2.413,11.354.884,8.365,1.491,5.4A5.349,5.349,0,0,1,3.159,2.272l.041-.03.036-.036a1.021,1.021,0,0,1,.724-.3.9.9,0,0,1,.642.261L7.769,5.33A.969.969,0,0,1,7.726,6.7L6.33,8.09l-.023.024a1.113,1.113,0,0,0-.121,1.295,16.521,16.521,0,0,0,2.894,4,16.5,16.5,0,0,0,3.986,2.887,1.229,1.229,0,0,0,.588.157,1.087,1.087,0,0,0,.826-.38l1.31-1.309a1.016,1.016,0,0,1,.722-.3.9.9,0,0,1,.643.259l3.165,3.167A1.07,1.07,0,0,1,20.232,19.3Z" transform="translate(0 -0.542)" fill="#005291"/>
  <path id="Path_12360" data-name="Path 12360" d="M140.406,23.7a6.45,6.45,0,0,1,5.312,5.343.68.68,0,0,0,.675.607.706.706,0,0,0,.074,0,.68.68,0,0,0,.6-.749,7.8,7.8,0,0,0-6.508-6.547.68.68,0,1,0-.155,1.351Z" transform="translate(-127.13 -20.365)" fill="#005291"/>
  <path id="Path_12361" data-name="Path 12361" d="M133.4,55.114a4.073,4.073,0,0,1,3.2,3.214.68.68,0,0,0,.675.607.706.706,0,0,0,.074,0,.68.68,0,0,0,.6-.749,5.413,5.413,0,0,0-4.392-4.418.68.68,0,1,0-.155,1.351Z" transform="translate(-120.757 -48.934)" fill="#005291"/>
</svg>
