<svg xmlns="http://www.w3.org/2000/svg" width="26.248" height="26.13" viewBox="0 0 26.248 26.13">
  <g id="_001-vibrating-phone" data-name="001-vibrating-phone" transform="translate(0 -0.542)">
    <path id="Path_12359" data-name="Path 12359" d="M25.492,20.16l-3.794-3.8a2.7,2.7,0,0,0-1.921-.786,2.835,2.835,0,0,0-2.017.841L16.284,17.9a17.982,17.982,0,0,1-4.256-3.1,17.993,17.993,0,0,1-3.1-4.257l1.478-1.477a2.79,2.79,0,0,0,.05-3.938L6.663,1.332A2.691,2.691,0,0,0,4.742.542a2.838,2.838,0,0,0-1.982.805A8.123,8.123,0,0,0,.191,6.029C-.662,10.194,1.3,14.2,6.956,19.863c6.32,6.319,11.716,6.81,13.219,6.81a5,5,0,0,0,.552-.025,6.26,6.26,0,0,0,4.774-2.61A2.873,2.873,0,0,0,25.492,20.16Zm-1.259,2.855a4.634,4.634,0,0,1-3.7,2.015,3.629,3.629,0,0,1-.363.014c-1.345,0-6.19-.457-12.068-6.333-5.218-5.22-7.049-8.8-6.321-12.355a6.406,6.406,0,0,1,2-3.741l.049-.036.043-.043a1.222,1.222,0,0,1,.867-.365,1.074,1.074,0,0,1,.769.312L9.3,6.277a1.16,1.16,0,0,1-.051,1.635L7.582,9.582l-.027.029a1.333,1.333,0,0,0-.144,1.551,19.787,19.787,0,0,0,3.466,4.787,19.762,19.762,0,0,0,4.774,3.458,1.472,1.472,0,0,0,.7.188,1.3,1.3,0,0,0,.989-.455l1.569-1.568a1.217,1.217,0,0,1,.865-.363,1.084,1.084,0,0,1,.77.31l3.791,3.793A1.281,1.281,0,0,1,24.233,23.014Z" transform="translate(0)" fill="#fff"/>
    <path id="Path_12360" data-name="Path 12360" d="M140.525,23.965a7.725,7.725,0,0,1,6.362,6.4.814.814,0,0,0,.809.727.845.845,0,0,0,.089,0,.814.814,0,0,0,.722-.9,9.345,9.345,0,0,0-7.795-7.842.814.814,0,1,0-.186,1.618Z" transform="translate(-124.624 -19.432)" fill="#fff"/>
    <path id="Path_12361" data-name="Path 12361" d="M133.518,55.382a4.878,4.878,0,0,1,3.828,3.849.814.814,0,0,0,.809.727.843.843,0,0,0,.089,0,.814.814,0,0,0,.722-.9,6.484,6.484,0,0,0-5.261-5.292.814.814,0,1,0-.186,1.618Z" transform="translate(-118.377 -47.438)" fill="#fff"/>
  </g>
</svg>
