<svg xmlns="http://www.w3.org/2000/svg" xmlns:xlink="http://www.w3.org/1999/xlink" width="16" height="16" viewBox="0 0 16 16">
  <defs>
    <clipPath id="clip-path">
      <rect id="Rectangle_1880" data-name="Rectangle 1880" width="16" height="16" transform="translate(1447 6456)" fill="#fff" stroke="#707070" stroke-width="1"/>
    </clipPath>
  </defs>
  <g id="Mask_Group_26" data-name="Mask Group 26" transform="translate(-1447 -6456)" clip-path="url(#clip-path)">
    <g id="_001-call" data-name="001-call" transform="translate(1447 6456)">
      <g id="Group_5449" data-name="Group 5449">
        <g id="Group_5448" data-name="Group 5448">
          <path id="Path_12465" data-name="Path 12465" d="M15.689,12.723,13.915,11.54l-1.577-1.051a.7.7,0,0,0-.938.152L10.425,11.9a.7.7,0,0,1-.887.184A11.36,11.36,0,0,1,6.365,9.635,11.442,11.442,0,0,1,3.92,6.463.7.7,0,0,1,4.1,5.575L5.359,4.6a.7.7,0,0,0,.152-.938L4.492,2.133,3.277.311A.7.7,0,0,0,2.337.1L.936.94A1.712,1.712,0,0,0,.159,1.946c-.383,1.4-.46,4.479,4.478,9.417s8.02,4.861,9.417,4.478a1.712,1.712,0,0,0,1.006-.777l.841-1.4A.7.7,0,0,0,15.689,12.723Z" fill="#fff"/>
          <path id="Path_12466" data-name="Path 12466" d="M9.1,2.483a4.7,4.7,0,0,1,4.69,4.69.276.276,0,1,0,.552,0A5.247,5.247,0,0,0,9.1,1.931a.276.276,0,0,0,0,.552Z" fill="#fff"/>
          <path id="Path_12467" data-name="Path 12467" d="M9.1,4.138a3.038,3.038,0,0,1,3.034,3.034.276.276,0,1,0,.552,0A3.59,3.59,0,0,0,9.1,3.586a.276.276,0,0,0,0,.552Z" fill="#fff"/>
          <path id="Path_12468" data-name="Path 12468" d="M9.1,5.793a1.381,1.381,0,0,1,1.379,1.379.276.276,0,1,0,.552,0A1.933,1.933,0,0,0,9.1,5.241a.276.276,0,0,0,0,.552Z" fill="#fff"/>
        </g>
      </g>
    </g>
  </g>
</svg>
