<svg xmlns="http://www.w3.org/2000/svg" width="32" height="32" viewBox="0 0 32 32">
  <g id="photos" transform="translate(-852 -350)">
    <g id="Group_5184" data-name="Group 5184" transform="translate(858.85 356.85)">
      <path id="Path_5705" data-name="Path 5705" d="M441.258-493.8v-10.511c.012-.051.026-.1.034-.154a4.2,4.2,0,0,1,2.812-3.488,8.232,8.232,0,0,1,1.051-.255h10.511a.862.862,0,0,0,.119.031,4.257,4.257,0,0,1,3.608,3.067c.075.261.114.532.17.8V-493.8a1.1,1.1,0,0,0-.033.137,4.276,4.276,0,0,1-3.289,3.651c-.19.042-.383.073-.574.109H445.155a.831.831,0,0,0-.118-.031,4.27,4.27,0,0,1-3.676-3.325C441.321-493.444,441.292-493.625,441.258-493.8Zm1.22-.377a3.047,3.047,0,0,0,3.064,3.05q4.862.005,9.724,0a3.03,3.03,0,0,0,3.07-3.024q.025-4.915,0-9.831a3.029,3.029,0,0,0-3.054-3q-4.844-.008-9.688,0a3.387,3.387,0,0,0-.778.087,3.03,3.03,0,0,0-2.335,2.945C442.47-502.327,442.471-495.809,442.478-494.182Z" transform="translate(-441.258 508.213)" fill="#aeaebb"/>
      <path id="Path_5706" data-name="Path 5706" d="M496.792-314.17a2.5,2.5,0,0,1,1.869.806c.894.965,1.778,1.941,2.662,2.916a.607.607,0,0,1-.024.892.6.6,0,0,1-.885-.075c-.871-.955-1.735-1.915-2.611-2.866a1.331,1.331,0,0,0-1.81-.176,2.549,2.549,0,0,0-.331.324q-1.247,1.366-2.488,2.736a.619.619,0,0,1-.636.228.61.61,0,0,1-.286-1.031c.591-.654,2.359-2.6,2.657-2.921A2.565,2.565,0,0,1,496.792-314.17Z" transform="translate(-489.648 323.42)" fill="#aeaebb"/>
      <path id="Path_5707" data-name="Path 5707" d="M660.63-418.532a1.824,1.824,0,0,1,1.829,1.828,1.83,1.83,0,0,1-1.828,1.832A1.838,1.838,0,0,1,658.8-416.7,1.831,1.831,0,0,1,660.63-418.532Zm.609,1.818a.6.6,0,0,0-.606-.6.61.61,0,0,0-.615.61.625.625,0,0,0,.619.611A.611.611,0,0,0,661.239-416.714Z" transform="translate(-648.43 422.807)" fill="#aeaebb"/>
      <path id="Path_5708" data-name="Path 5708" d="M680.294-292.868a2.549,2.549,0,0,1,1.866.779c.6.634,1.187,1.286,1.77,1.937a.6.6,0,0,1-.273,1.009.669.669,0,0,1-.674-.227c-.529-.581-1.064-1.156-1.586-1.743a1.467,1.467,0,0,0-1.254-.552.578.578,0,0,1-.578-.564.564.564,0,0,1,.505-.62C680.154-292.858,680.237-292.863,680.294-292.868Z" transform="translate(-668.205 303.133)" fill="#aeaebb"/>
    </g>
    <g id="Rectangle_592" data-name="Rectangle 592" transform="translate(852 350)">
      <g id="Group_5187" data-name="Group 5187">
        <path id="Path_5713" data-name="Path 5713" d="M-89.437,31.85a16.018,16.018,0,0,1-16-16,16.018,16.018,0,0,1,16-16,16.018,16.018,0,0,1,16,16A16.018,16.018,0,0,1-89.437,31.85Zm0-30.712A14.729,14.729,0,0,0-104.149,15.85,14.729,14.729,0,0,0-89.437,30.562,14.729,14.729,0,0,0-74.725,15.85,14.729,14.729,0,0,0-89.437,1.138Z" transform="translate(105.437 0.15)" fill="#aeaebb"/>
      </g>
    </g>
  </g>
</svg>
