<svg id="play" xmlns="http://www.w3.org/2000/svg" width="32" height="32" viewBox="0 0 32 32">
  <path id="Path_5711" data-name="Path 5711" d="M22.83,14.31,13.57,8.44a2,2,0,0,0-3.07,1.69V21.87a2,2,0,0,0,3.07,1.69l9.26-5.87a2,2,0,0,0,0-3.38Zm-.64,2.37-9.26,5.86a.793.793,0,0,1-.82.03.8.8,0,0,1-.41-.7V10.13a.8.8,0,0,1,.41-.7.793.793,0,0,1,.82.03l9.26,5.86a.81.81,0,0,1,0,1.36Z" transform="translate(-0.166)" fill="#aeaebb"/>
  <g id="Group_5186" data-name="Group 5186">
    <path id="Path_5712" data-name="Path 5712" d="M-89.437,31.85a16.018,16.018,0,0,1-16-16,16.018,16.018,0,0,1,16-16,16.018,16.018,0,0,1,16,16A16.018,16.018,0,0,1-89.437,31.85Zm0-30.712A14.729,14.729,0,0,0-104.149,15.85,14.729,14.729,0,0,0-89.437,30.562,14.729,14.729,0,0,0-74.725,15.85,14.729,14.729,0,0,0-89.437,1.138Z" transform="translate(105.437 0.15)" fill="#aeaebb"/>
  </g>
</svg>
