<svg id="c34_present" xmlns="http://www.w3.org/2000/svg" width="21.867" height="24.967" viewBox="0 0 21.867 24.967">
  <path id="Path_12573" data-name="Path 12573" d="M9.017,19.919l-.972-1.578-2.053.369,2.7-4.789H3.427V26.516H12.4V13.922Z" transform="translate(-1.931 -1.549)" fill="#fff"/>
  <path id="Path_12574" data-name="Path 12574" d="M23.6,6.364H17.639a7.311,7.311,0,0,0,.935-.566,3.4,3.4,0,0,0,1.62-2.675A3.606,3.606,0,0,0,19.285.75,3.062,3.062,0,0,0,17.266,0a4,4,0,0,0-2.224.715,8.529,8.529,0,0,0-2.286,3.152l-.082.159a14.194,14.194,0,0,0-.7-1.632A6.452,6.452,0,0,0,10.309.715,3.981,3.981,0,0,0,8.089,0,3.1,3.1,0,0,0,5.976.868,3.989,3.989,0,0,0,5.032,3.4a2.712,2.712,0,0,0,.433,1.464,4.4,4.4,0,0,0,1.764,1.5H1.744l.012,5.008h10.3V6.364H13.31v5.008h10.3ZM7.584,4.8a2.557,2.557,0,0,1-.817-.759,1.848,1.848,0,0,1,.268-2.051,1.584,1.584,0,0,1,1.043-.45h.011A2.5,2.5,0,0,1,9.457,2a7.3,7.3,0,0,1,1.766,2.563,6.835,6.835,0,0,1,.531,1.4A9.944,9.944,0,0,1,7.584,4.8Zm7.051-1.089A7.479,7.479,0,0,1,15.9,2a2.487,2.487,0,0,1,1.368-.458h0a1.538,1.538,0,0,1,1,.371,1.355,1.355,0,0,1,.385.926,2.283,2.283,0,0,1-.981,1.714,10.573,10.573,0,0,1-4.1,1.515A7.039,7.039,0,0,1,14.635,3.709Z" transform="translate(-1.744)" fill="#fff"/>
  <path id="Path_12575" data-name="Path 12575" d="M21,18.69l-2.052-.348-.969,1.6L14.637,14V26.516h8.926V13.922H18.3Z" transform="translate(-3.178 -1.549)" fill="#fff"/>
  <path id="Path_12576" data-name="Path 12576" d="M14.637,13.922" transform="translate(-3.178 -1.549)" fill="#fff"/>
</svg>
