<svg id="reports" xmlns="http://www.w3.org/2000/svg" width="32" height="32" viewBox="0 0 32 32">
  <g id="Rectangle_592" data-name="Rectangle 592">
    <g id="Group_5186" data-name="Group 5186">
      <path id="Path_5712" data-name="Path 5712" d="M-89.437,31.85a16.018,16.018,0,0,1-16-16,16.018,16.018,0,0,1,16-16,16.018,16.018,0,0,1,16,16A16.018,16.018,0,0,1-89.437,31.85Zm0-30.712A14.729,14.729,0,0,0-104.149,15.85,14.729,14.729,0,0,0-89.437,30.562,14.729,14.729,0,0,0-74.725,15.85,14.729,14.729,0,0,0-89.437,1.138Z" transform="translate(105.437 0.15)" fill="#aeaebb"/>
    </g>
  </g>
  <path id="Path_21506" data-name="Path 21506" d="M16.724,3.987,12.827.16A.559.559,0,0,0,12.436,0H2.584A2.087,2.087,0,0,0,.5,2.085v14.9a2.087,2.087,0,0,0,2.085,2.085H14.806a2.087,2.087,0,0,0,2.085-2.085V4.386a.559.559,0,0,0-.167-.4Zm-3.729-2.1,1.971,1.936H13.172a.178.178,0,0,1-.178-.178Zm1.812,16.065H2.584a.969.969,0,0,1-.967-.967V2.085a.968.968,0,0,1,.967-.967h9.293V3.649a1.3,1.3,0,0,0,1.3,1.3h2.6V16.988a.968.968,0,0,1-.967.967Zm0,0" transform="translate(7.304 6.463)" fill="#aeaebb"/>
  <path id="Path_21507" data-name="Path 21507" d="M106.628,238H98.751a.559.559,0,0,0,0,1.118h7.877a.559.559,0,1,0,0-1.118Zm0,0" transform="translate(-86.749 -222.672)" fill="#aeaebb"/>
  <path id="Path_21508" data-name="Path 21508" d="M98.75,299.118h6.423a.559.559,0,1,0,0-1.118H98.75a.559.559,0,0,0,0,1.118Zm0,0" transform="translate(-86.748 -280.436)" fill="#aeaebb"/>
  <path id="Path_21509" data-name="Path 21509" d="M105.947,358h-7.2a.559.559,0,0,0,0,1.118h7.2a.559.559,0,1,0,0-1.118Zm0,0" transform="translate(-86.748 -338.201)" fill="#aeaebb"/>
</svg>
