<svg xmlns="http://www.w3.org/2000/svg" width="18.397" height="16.537" viewBox="0 0 18.397 16.537">
  <path id="_001-shopping-cart" data-name="001-shopping-cart" d="M8.886,123.1a1.528,1.528,0,1,1-1.528-1.528A1.528,1.528,0,0,1,8.886,123.1Zm4.658-1.528a1.528,1.528,0,1,0,1.528,1.528A1.528,1.528,0,0,0,13.545,121.571Zm4.742-7.172-1.88,5.588a1.009,1.009,0,0,1-.948.829H5.966c-.946,0-.986-1.039-.986-1.039s-1.009-7.483-1.059-7.936-.628-.787-.628-.787L.805,109.892c-1.362-.712-.743-2.067,0-1.756,3.154,1.488,4.62,2.221,4.714,2.807s.261,2,.261,2v.009l.033-.009H17.441C18.845,112.944,18.287,114.4,18.287,114.4Zm-2.719,3.111H6.345l.19,1.5H15.12Zm.9-3.033H5.965l.2,1.607h9.822Z" transform="translate(0 -108.09)" fill="#fff"/>
</svg>
