<svg xmlns="http://www.w3.org/2000/svg" xmlns:xlink="http://www.w3.org/1999/xlink" width="24" height="24" viewBox="0 0 24 24">
  <defs>
    <clipPath id="clip-path">
      <rect id="Rectangle_2032" data-name="Rectangle 2032" width="24" height="24" transform="translate(1439 637)" fill="#aeaebb"/>
    </clipPath>
  </defs>
  <g id="show" transform="translate(-1439 -637)" clip-path="url(#clip-path)">
    <g id="view" transform="translate(1440.064 549.456)">
      <g id="view-2" data-name="view" transform="translate(0 92.835)">
        <path id="Path_6636" data-name="Path 6636" d="M21.732,99.38c-.2-.267-4.851-6.545-10.8-6.545S.334,99.112.139,99.379a.722.722,0,0,0,0,.851c.2.267,4.851,6.545,10.8,6.545s10.6-6.277,10.8-6.544A.721.721,0,0,0,21.732,99.38Zm-10.8,5.953c-4.38,0-8.173-4.166-9.3-5.528,1.121-1.363,4.907-5.527,9.3-5.527s8.173,4.166,9.3,5.528C19.11,101.169,15.325,105.333,10.935,105.333Z" transform="translate(0 -92.835)" fill="#aeaebb"/>
        <g id="Group_10735" data-name="Group 10735" transform="translate(6.609 2.645)">
          <g id="Group_10734" data-name="Group 10734" transform="translate(0 0)">
            <path id="Path_6637" data-name="Path 6637" d="M159.048,154.725a4.326,4.326,0,1,0,4.326,4.326A4.331,4.331,0,0,0,159.048,154.725Zm0,7.21a2.884,2.884,0,1,1,2.884-2.884A2.887,2.887,0,0,1,159.048,161.935Z" transform="translate(-154.722 -154.725)" fill="#aeaebb"/>
          </g>
        </g>
      </g>
    </g>
  </g>
</svg>
