<svg xmlns="http://www.w3.org/2000/svg" xmlns:xlink="http://www.w3.org/1999/xlink" width="30" height="30" viewBox="0 0 30 30">
  <defs>
    <clipPath id="clip-path">
      <rect id="Rectangle_2625" data-name="Rectangle 2625" width="30" height="30" transform="translate(720 947)" fill="#f5f7f8"/>
    </clipPath>
  </defs>
  <g id="smile" transform="translate(-720 -947)" clip-path="url(#clip-path)">
    <g id="Group_11298" data-name="Group 11298" transform="translate(479.05 706.05)">
      <path id="Path_7419" data-name="Path 7419" d="M260.2,251.712a1.118,1.118,0,1,0,1.118,1.118A1.118,1.118,0,0,0,260.2,251.712Zm-8.4,0a1.118,1.118,0,1,0,1.119,1.118A1.117,1.117,0,0,0,251.8,251.712Zm8.571,6.618a.7.7,0,0,0-.38-.11.877.877,0,0,0-.16.02.7.7,0,0,0-.44.31,4.438,4.438,0,0,1-3.44,1.98,4.509,4.509,0,0,1-3.44-1.98.7.7,0,0,0-.44-.31.877.877,0,0,0-.16-.02.758.758,0,0,0-.38.11.726.726,0,0,0-.22.99,5.408,5.408,0,0,0,9.28,0A.726.726,0,0,0,260.37,258.33Zm0,0a.7.7,0,0,0-.38-.11.877.877,0,0,0-.16.02.7.7,0,0,0-.44.31,4.438,4.438,0,0,1-3.44,1.98,4.509,4.509,0,0,1-3.44-1.98.7.7,0,0,0-.44-.31.877.877,0,0,0-.16-.02.758.758,0,0,0-.38.11.726.726,0,0,0-.22.99,5.408,5.408,0,0,0,9.28,0A.726.726,0,0,0,260.37,258.33Zm0,0a.7.7,0,0,0-.38-.11.877.877,0,0,0-.16.02.7.7,0,0,0-.44.31,4.438,4.438,0,0,1-3.44,1.98,4.509,4.509,0,0,1-3.44-1.98.7.7,0,0,0-.44-.31.877.877,0,0,0-.16-.02.758.758,0,0,0-.38.11.726.726,0,0,0-.22.99,5.408,5.408,0,0,0,9.28,0A.726.726,0,0,0,260.37,258.33Zm0,0a.7.7,0,0,0-.38-.11.877.877,0,0,0-.16.02.7.7,0,0,0-.44.31,4.438,4.438,0,0,1-3.44,1.98,4.509,4.509,0,0,1-3.44-1.98.7.7,0,0,0-.44-.31.877.877,0,0,0-.16-.02.758.758,0,0,0-.38.11.726.726,0,0,0-.22.99,5.408,5.408,0,0,0,9.28,0A.726.726,0,0,0,260.37,258.33Zm0,0a.7.7,0,0,0-.38-.11.877.877,0,0,0-.16.02.7.7,0,0,0-.44.31,4.438,4.438,0,0,1-3.44,1.98,4.509,4.509,0,0,1-3.44-1.98.7.7,0,0,0-.44-.31.877.877,0,0,0-.16-.02.758.758,0,0,0-.38.11.726.726,0,0,0-.22.99,5.408,5.408,0,0,0,9.28,0A.726.726,0,0,0,260.37,258.33Zm0,0a.7.7,0,0,0-.38-.11.877.877,0,0,0-.16.02.7.7,0,0,0-.44.31,4.438,4.438,0,0,1-3.44,1.98,4.509,4.509,0,0,1-3.44-1.98.7.7,0,0,0-.44-.31.877.877,0,0,0-.16-.02.758.758,0,0,0-.38.11.726.726,0,0,0-.22.99,5.408,5.408,0,0,0,9.28,0A.726.726,0,0,0,260.37,258.33Zm0,0a.7.7,0,0,0-.38-.11.877.877,0,0,0-.16.02.7.7,0,0,0-.44.31,4.438,4.438,0,0,1-3.44,1.98,4.509,4.509,0,0,1-3.44-1.98.7.7,0,0,0-.44-.31.877.877,0,0,0-.16-.02.758.758,0,0,0-.38.11.726.726,0,0,0-.22.99,5.408,5.408,0,0,0,9.28,0A.726.726,0,0,0,260.37,258.33Zm0,0a.7.7,0,0,0-.38-.11.877.877,0,0,0-.16.02.7.7,0,0,0-.44.31,4.438,4.438,0,0,1-3.44,1.98,4.509,4.509,0,0,1-3.44-1.98.7.7,0,0,0-.44-.31.877.877,0,0,0-.16-.02.758.758,0,0,0-.38.11.726.726,0,0,0-.22.99,5.408,5.408,0,0,0,9.28,0A.726.726,0,0,0,260.37,258.33Zm0,0a.7.7,0,0,0-.38-.11.877.877,0,0,0-.16.02.7.7,0,0,0-.44.31,4.438,4.438,0,0,1-3.44,1.98,4.509,4.509,0,0,1-3.44-1.98.7.7,0,0,0-.44-.31.877.877,0,0,0-.16-.02.758.758,0,0,0-.38.11.726.726,0,0,0-.22.99,5.408,5.408,0,0,0,9.28,0A.726.726,0,0,0,260.37,258.33Zm0,0a.7.7,0,0,0-.38-.11.877.877,0,0,0-.16.02.7.7,0,0,0-.44.31,4.438,4.438,0,0,1-3.44,1.98,4.509,4.509,0,0,1-3.44-1.98.7.7,0,0,0-.44-.31.877.877,0,0,0-.16-.02.758.758,0,0,0-.38.11.726.726,0,0,0-.22.99,5.408,5.408,0,0,0,9.28,0A.726.726,0,0,0,260.37,258.33Zm0,0a.7.7,0,0,0-.38-.11.877.877,0,0,0-.16.02.7.7,0,0,0-.44.31,4.438,4.438,0,0,1-3.44,1.98,4.509,4.509,0,0,1-3.44-1.98.7.7,0,0,0-.44-.31.877.877,0,0,0-.16-.02.758.758,0,0,0-.38.11.726.726,0,0,0-.22.99,5.408,5.408,0,0,0,9.28,0A.726.726,0,0,0,260.37,258.33Zm4.15-10.85a12.047,12.047,0,1,0,3.53,8.52A11.941,11.941,0,0,0,264.52,247.48ZM256,266.63A10.63,10.63,0,1,1,266.63,256,10.644,10.644,0,0,1,256,266.63Z"/>
    </g>
  </g>
</svg>
