<svg id="upload-img" xmlns="http://www.w3.org/2000/svg" width="24" height="24" viewBox="0 0 24 24">
  <path id="Path_78" data-name="Path 78" d="M19.519,24.629a7.622,7.622,0,0,0-2.167-4.271A6.671,6.671,0,0,0,12.664,18.4a6.584,6.584,0,0,0-3.771,1.194,7.242,7.242,0,0,0-2.255,2.552,3.713,3.713,0,0,0-.73-.074A3.961,3.961,0,0,0,2.1,26.162a4.8,4.8,0,0,0,.079.849A5.837,5.837,0,0,0,0,31.6a6.352,6.352,0,0,0,1.436,4.027A5.009,5.009,0,0,0,4.99,37.547H9.273a.718.718,0,0,0,0-1.432H5.049c-2.019-.133-3.716-2.2-3.716-4.52a4.322,4.322,0,0,1,1.959-3.661.749.749,0,0,0,.291-.87,2.774,2.774,0,0,1-.148-.913,2.575,2.575,0,0,1,2.473-2.658,2.279,2.279,0,0,1,.844.159.652.652,0,0,0,.834-.366,5.624,5.624,0,0,1,5.083-3.464,5.762,5.762,0,0,1,5.592,5.454.7.7,0,0,0,.553.637,5.232,5.232,0,0,1-.454,10.2H14.722a.718.718,0,0,0,0,1.432h3.711a5.762,5.762,0,0,0,3.958-2.1A6.891,6.891,0,0,0,24,30.984,6.557,6.557,0,0,0,19.519,24.629Z" transform="translate(0 -18.4)" fill="#f86a04"/>
  <path id="Path_79" data-name="Path 79" d="M167.316,190.581a.737.737,0,0,0,0-1.046l-3.916-3.916a.748.748,0,0,0-.52-.219.725.725,0,0,0-.52.219l-3.916,3.916a.742.742,0,0,0,.52,1.265.722.722,0,0,0,.52-.219l2.656-2.656v12.209a.739.739,0,1,0,1.479,0V187.925l2.656,2.656A.731.731,0,0,0,167.316,190.581Z" transform="translate(-150.877 -176.873)" fill="#f86a04"/>
</svg>
