<svg xmlns="http://www.w3.org/2000/svg" width="40" height="40" viewBox="0 0 40 40">
  <g id="user25" transform="translate(-1539 -603)">
    <circle id="Ellipse_391" data-name="Ellipse 391" cx="20" cy="20" r="20" transform="translate(1539 603)" fill="#e4e4e9"/>
    <g id="Group_10692" data-name="Group 10692" transform="translate(1612.777 593.244)">
      <path id="Path_6596" data-name="Path 6596" d="M-54.525,16.756c.665.159,1.375-.257,2,0a5.881,5.881,0,0,1,4,5c.5,2.858-1.435,6.559-4,8a7.144,7.144,0,0,1-8-1,6.488,6.488,0,0,1-2-6c.317-2.713,1.482-4.944,4-6,.639-.267,1.32.167,2,0Z" transform="translate(1.748 0)" fill="#aeaebb"/>
      <path id="Path_6597" data-name="Path 6597" d="M-53.777,37.753c-3.024-.026-5.566-.186-8-2a15.826,15.826,0,0,1-4-4,1.328,1.328,0,0,1,0-1,8.8,8.8,0,0,1,6-5c.169-.041.831.04,1,0,.446-.106.628-.262,1,0,1.37.965,2.33,2.069,4,2a7.765,7.765,0,0,0,4-1c.772-.567,1.176-1.23,2-1,2.328.647,4.762,1.94,6,4,.538.892.573,1.137,0,2a15.8,15.8,0,0,1-6,5A12.988,12.988,0,0,1-53.777,37.753Z" transform="translate(0 5.003)" fill="#aeaebb"/>
    </g>
  </g>
</svg>
