<svg xmlns="http://www.w3.org/2000/svg" xmlns:xlink="http://www.w3.org/1999/xlink" width="28" height="28" viewBox="0 0 28 28">
  <defs>
    <clipPath id="clip-path">
      <rect id="Rectangle_2080" data-name="Rectangle 2080" width="28" height="28" transform="translate(253 375)" fill="#030303" stroke="#707070" stroke-width="1"/>
    </clipPath>
  </defs>
  <g id="Mask_Group_33" data-name="Mask Group 33" transform="translate(-253 -375)" clip-path="url(#clip-path)">
    <path id="_001-user" data-name="001-user" d="M22.407,20.015l-4.458-2.229a1.228,1.228,0,0,1-.682-1.1V15.1c.107-.131.219-.28.336-.444a10.68,10.68,0,0,0,1.379-2.706,1.852,1.852,0,0,0,1.086-1.688V8.4A1.861,1.861,0,0,0,19.6,7.175V4.693a4.183,4.183,0,0,0-.976-3.045A5.874,5.874,0,0,0,14,0,5.875,5.875,0,0,0,9.376,1.647,4.184,4.184,0,0,0,8.4,4.693V7.175A1.861,1.861,0,0,0,7.933,8.4v1.867a1.856,1.856,0,0,0,.7,1.451,9.794,9.794,0,0,0,1.635,3.377v1.544a1.233,1.233,0,0,1-.643,1.083L5.461,19.992a4.208,4.208,0,0,0-2.194,3.7V25.2C3.267,27.415,10.288,28,14,28s10.733-.585,10.733-2.8V23.78A4.187,4.187,0,0,0,22.407,20.015ZM23.8,25.2c0,.633-3.459,1.867-9.8,1.867S4.2,25.833,4.2,25.2V23.689a3.274,3.274,0,0,1,1.708-2.877l4.163-2.271a2.167,2.167,0,0,0,1.129-1.9V14.763l-.109-.13a8.81,8.81,0,0,1-1.591-3.3l-.042-.185-.159-.1a.931.931,0,0,1-.432-.783V8.4a.921.921,0,0,1,.313-.688l.154-.139V4.667l0-.061a3.24,3.24,0,0,1,.749-2.343A5.013,5.013,0,0,1,14,.933a5.024,5.024,0,0,1,3.913,1.32,3.285,3.285,0,0,1,.757,2.352l0,2.968.154.139a.919.919,0,0,1,.313.688v1.867a.928.928,0,0,1-.664.886l-.232.071-.075.231a9.769,9.769,0,0,1-1.323,2.666,6.14,6.14,0,0,1-.391.5l-.116.133v1.925a2.155,2.155,0,0,0,1.2,1.938l4.458,2.229A3.258,3.258,0,0,1,23.8,23.78Z" transform="translate(253 375)" fill="#030303"/>
  </g>
</svg>
